<svg width="637" height="203" viewBox="0 0 637 203" fill="none" xmlns="http://www.w3.org/2000/svg">
<rect x="3.5" y="18.5" width="630" height="181" rx="90.5" fill="#8998AC" fill-opacity="0.23" stroke="black" stroke-width="7"/>
<g filter="url(#filter0_d_3_10)">
<path d="M336.232 39.69L339.298 74H348.715L344.116 25.382H330.976L318.566 60.276L306.521 25.382H293.381L288.928 74H298.418L301.776 39.836L314.624 74.511L323.311 75.314L336.232 39.69Z" fill="black"/>
<path d="M336.232 39.69L335.292 39.349L337.228 39.601L336.232 39.69ZM339.298 74V75H338.383L338.302 74.089L339.298 74ZM348.715 74L349.711 73.9058L349.814 75H348.715V74ZM344.116 25.382V24.382H345.026L345.112 25.2878L344.116 25.382ZM330.976 25.382L330.034 25.0469L330.27 24.382H330.976V25.382ZM318.566 60.276L319.508 60.6111L318.552 63.2999L317.621 60.6023L318.566 60.276ZM306.521 25.382V24.382H307.234L307.466 25.0557L306.521 25.382ZM293.381 25.382L292.385 25.2908L292.468 24.382H293.381V25.382ZM288.928 74V75H287.832L287.932 73.9088L288.928 74ZM298.418 74L299.413 74.0978L299.325 75H298.418V74ZM301.776 39.836L300.781 39.7382L302.714 39.4886L301.776 39.836ZM314.624 74.511L314.532 75.5068L313.905 75.4488L313.686 74.8584L314.624 74.511ZM323.311 75.314L324.251 75.655L323.988 76.3808L323.219 76.3098L323.311 75.314ZM337.228 39.601L340.294 73.911L338.302 74.089L335.236 39.779L337.228 39.601ZM339.298 73H348.715V75H339.298V73ZM347.719 74.0942L343.12 25.4762L345.112 25.2878L349.711 73.9058L347.719 74.0942ZM344.116 26.382H330.976V24.382H344.116V26.382ZM331.918 25.7171L319.508 60.6111L317.624 59.9409L330.034 25.0469L331.918 25.7171ZM317.621 60.6023L305.576 25.7083L307.466 25.0557L319.511 59.9497L317.621 60.6023ZM306.521 26.382H293.381V24.382H306.521V26.382ZM294.377 25.4732L289.924 74.0912L287.932 73.9088L292.385 25.2908L294.377 25.4732ZM288.928 73H298.418V75H288.928V73ZM297.423 73.9022L300.781 39.7382L302.771 39.9338L299.413 74.0978L297.423 73.9022ZM302.714 39.4886L315.562 74.1636L313.686 74.8584L300.838 40.1834L302.714 39.4886ZM314.716 73.5152L323.403 74.3182L323.219 76.3098L314.532 75.5068L314.716 73.5152ZM322.371 74.973L335.292 39.349L337.172 40.031L324.251 75.655L322.371 74.973Z" fill="black"/>
</g>
<g filter="url(#filter1_d_3_10)">
<path d="M290.448 87.16L293.472 121H302.76L298.224 73.048H285.264L273.024 107.464L261.144 73.048H248.184L243.792 121H253.152L256.464 87.304L269.136 121.504L277.704 122.296L290.448 87.16Z" fill="black"/>
<path d="M290.448 87.16L289.508 86.819L291.444 87.071L290.448 87.16ZM293.472 121V122H292.557L292.476 121.089L293.472 121ZM302.76 121L303.756 120.906L303.859 122H302.76V121ZM298.224 73.048V72.048H299.134L299.22 72.9538L298.224 73.048ZM285.264 73.048L284.322 72.7129L284.558 72.048H285.264V73.048ZM273.024 107.464L273.966 107.799L273.01 110.488L272.079 107.79L273.024 107.464ZM261.144 73.048V72.048H261.857L262.089 72.7217L261.144 73.048ZM248.184 73.048L247.188 72.9568L247.271 72.048H248.184V73.048ZM243.792 121V122H242.696L242.796 120.909L243.792 121ZM253.152 121L254.147 121.098L254.059 122H253.152V121ZM256.464 87.304L255.469 87.2062L257.402 86.9566L256.464 87.304ZM269.136 121.504L269.044 122.5L268.417 122.442L268.198 121.851L269.136 121.504ZM277.704 122.296L278.644 122.637L278.381 123.363L277.612 123.292L277.704 122.296ZM291.444 87.071L294.468 120.911L292.476 121.089L289.452 87.249L291.444 87.071ZM293.472 120H302.76V122H293.472V120ZM301.764 121.094L297.228 73.1422L299.22 72.9538L303.756 120.906L301.764 121.094ZM298.224 74.048H285.264V72.048H298.224V74.048ZM286.206 73.3831L273.966 107.799L272.082 107.129L284.322 72.7129L286.206 73.3831ZM272.079 107.79L260.199 73.3743L262.089 72.7217L273.969 107.138L272.079 107.79ZM261.144 74.048H248.184V72.048H261.144V74.048ZM249.18 73.1392L244.788 121.091L242.796 120.909L247.188 72.9568L249.18 73.1392ZM243.792 120H253.152V122H243.792V120ZM252.157 120.902L255.469 87.2062L257.459 87.4018L254.147 121.098L252.157 120.902ZM257.402 86.9566L270.074 121.157L268.198 121.851L255.526 87.6514L257.402 86.9566ZM269.228 120.508L277.796 121.3L277.612 123.292L269.044 122.5L269.228 120.508ZM276.764 121.955L289.508 86.819L291.388 87.501L278.644 122.637L276.764 121.955Z" fill="black"/>
</g>
<g filter="url(#filter2_d_3_10)">
<path d="M43.368 143.44L41.352 166H35.16L38.184 134.032H46.824L54.984 156.976L62.904 134.032H71.544L74.472 166H68.232L66.024 143.536L57.576 166.336L51.864 166.864L43.368 143.44ZM208.134 143.44L206.118 166H199.926L202.95 134.032H211.59L219.75 156.976L227.67 134.032H236.31L239.238 166H232.998L230.79 143.536L222.342 166.336L216.63 166.864L208.134 143.44ZM337.977 143.44L335.961 166H329.769L332.793 134.032H341.433L349.593 156.976L357.513 134.032H366.153L369.081 166H362.841L360.633 143.536L352.185 166.336L346.473 166.864L337.977 143.44Z" fill="#1EC3A0"/>
<path d="M87.0064 166.72C84.4464 166.72 82.4144 165.632 80.9104 163.456C79.4064 161.28 78.6544 158.32 78.6544 154.576C78.6544 150.032 79.8064 146.576 82.1104 144.208C84.4144 141.808 87.7264 140.608 92.0464 140.608C94.4784 140.608 97.3264 140.992 100.59 141.76V166H94.1584L94.3024 162.064H94.1104C93.2784 163.568 92.2544 164.72 91.0384 165.52C89.8544 166.32 88.5104 166.72 87.0064 166.72ZM88.4464 160.816C89.4384 160.816 90.4144 160.288 91.3744 159.232C92.3344 158.176 93.2304 156.768 94.0624 155.008V146.944C93.0384 146.656 92.0144 146.512 90.9904 146.512C89.0704 146.512 87.6144 147.168 86.6224 148.48C85.6624 149.792 85.1824 151.728 85.1824 154.288C85.1824 156.304 85.4704 157.904 86.0464 159.088C86.6224 160.24 87.4224 160.816 88.4464 160.816ZM107.136 141.28H113.76V145.552C114.784 143.856 115.968 142.608 117.312 141.808C118.656 141.008 120.224 140.608 122.016 140.608C124.672 140.608 126.752 141.408 128.256 143.008C129.76 144.576 130.512 146.768 130.512 149.584V166H123.744V150.64C123.744 149.36 123.424 148.368 122.784 147.664C122.144 146.928 121.28 146.56 120.192 146.56C118.912 146.56 117.696 147.04 116.544 148C115.392 148.96 114.512 150.176 113.904 151.648V166H107.136V141.28ZM144.542 176.896C141.694 176.896 138.91 176.528 136.19 175.792L137.486 169.84C140.558 170.736 143.118 171.184 145.166 171.184C146.798 171.184 148.046 170.928 148.91 170.416C149.806 169.904 150.43 169.104 150.782 168.016C151.166 166.928 151.39 165.44 151.454 163.552H151.31C150.414 164.576 149.374 165.36 148.19 165.904C147.006 166.448 145.71 166.72 144.302 166.72C141.486 166.72 139.278 165.664 137.678 163.552C136.11 161.408 135.326 158.448 135.326 154.672C135.326 150.096 136.494 146.608 138.83 144.208C141.198 141.808 144.574 140.608 148.958 140.608C151.486 140.608 154.494 140.992 157.982 141.76C158.046 148.352 158.078 153.312 158.078 156.64C158.078 159.616 158.062 161.856 158.03 163.36C157.966 167.904 156.814 171.296 154.574 173.536C152.366 175.776 149.022 176.896 144.542 176.896ZM146.078 160.816C147.07 160.816 148.014 160.448 148.91 159.712C149.838 158.976 150.654 157.936 151.358 156.592L151.31 146.944C150.254 146.656 149.23 146.512 148.238 146.512C146.222 146.512 144.686 147.168 143.63 148.48C142.606 149.792 142.094 151.696 142.094 154.192C142.094 156.272 142.43 157.904 143.102 159.088C143.806 160.24 144.798 160.816 146.078 160.816ZM175.893 166.72C171.893 166.72 168.741 165.568 166.437 163.264C164.165 160.96 163.029 157.76 163.029 153.664C163.029 151.008 163.525 148.704 164.517 146.752C165.509 144.768 166.901 143.248 168.693 142.192C170.517 141.136 172.645 140.608 175.077 140.608C178.661 140.608 181.413 141.76 183.333 144.064C185.253 146.368 186.213 149.696 186.213 154.048C186.213 154.784 186.197 155.328 186.165 155.68H169.845C170.165 157.376 170.901 158.672 172.053 159.568C173.205 160.432 174.757 160.864 176.709 160.864C177.893 160.864 179.125 160.72 180.405 160.432C181.685 160.112 182.805 159.696 183.765 159.184L184.869 164.608C183.589 165.28 182.165 165.792 180.597 166.144C179.061 166.528 177.493 166.72 175.893 166.72ZM179.733 150.592C179.637 149.216 179.157 148.128 178.293 147.328C177.429 146.496 176.277 146.08 174.837 146.08C173.461 146.08 172.325 146.48 171.429 147.28C170.565 148.08 170.021 149.184 169.797 150.592H179.733ZM256.284 166.72C252.284 166.72 249.132 165.568 246.828 163.264C244.556 160.96 243.42 157.76 243.42 153.664C243.42 151.008 243.916 148.704 244.908 146.752C245.9 144.768 247.292 143.248 249.084 142.192C250.908 141.136 253.036 140.608 255.468 140.608C259.052 140.608 261.804 141.76 263.724 144.064C265.644 146.368 266.604 149.696 266.604 154.048C266.604 154.784 266.588 155.328 266.556 155.68H250.236C250.556 157.376 251.292 158.672 252.444 159.568C253.596 160.432 255.148 160.864 257.1 160.864C258.284 160.864 259.516 160.72 260.796 160.432C262.076 160.112 263.196 159.696 264.156 159.184L265.26 164.608C263.98 165.28 262.556 165.792 260.988 166.144C259.452 166.528 257.884 166.72 256.284 166.72ZM260.124 150.592C260.028 149.216 259.548 148.128 258.684 147.328C257.82 146.496 256.668 146.08 255.228 146.08C253.852 146.08 252.716 146.48 251.82 147.28C250.956 148.08 250.412 149.184 250.188 150.592H260.124ZM283.421 166.72C279.325 166.72 276.141 165.632 273.869 163.456C271.629 161.28 270.509 158.208 270.509 154.24C270.509 151.552 271.037 149.184 272.093 147.136C273.149 145.056 274.637 143.456 276.557 142.336C278.477 141.184 280.701 140.608 283.229 140.608C284.413 140.608 285.645 140.752 286.925 141.04C288.237 141.296 289.245 141.6 289.949 141.952L288.653 147.664C287.917 147.312 287.101 147.04 286.205 146.848C285.341 146.624 284.525 146.512 283.757 146.512C281.773 146.512 280.173 147.184 278.957 148.528C277.773 149.872 277.181 151.648 277.181 153.856C277.181 156.096 277.789 157.824 279.005 159.04C280.253 160.256 282.013 160.864 284.285 160.864C285.789 160.864 287.405 160.576 289.133 160L290.141 165.472C288.061 166.304 285.821 166.72 283.421 166.72ZM301.732 155.248V166H294.964V130.912H301.732V150.304L309.46 141.28H317.476L307.588 152.368L318.004 165.712L310.66 166.72L301.732 155.248ZM382.672 166.672C380.048 166.672 377.984 165.872 376.48 164.272C374.976 162.672 374.224 160.48 374.224 157.696V141.28H380.992V156.592C380.992 157.904 381.312 158.928 381.952 159.664C382.592 160.368 383.456 160.72 384.544 160.72C385.632 160.72 386.672 160.368 387.664 159.664C388.688 158.96 389.536 158.016 390.208 156.832V141.28H396.976V166H390.208V162.736C389.28 163.984 388.208 164.96 386.992 165.664C385.808 166.336 384.368 166.672 382.672 166.672ZM402.094 160.192H406.462V136.72H402.334V130.96H413.23V160.192H417.598V166H402.094V160.192ZM430.411 166.72C428.107 166.72 426.315 166.144 425.035 164.992C423.787 163.808 423.163 162.144 423.163 160V147.088H419.323V141.28H423.163V136C425.435 135.616 427.675 135.328 429.883 135.136V141.28H436.123V147.088H429.883V158.752C429.883 159.424 430.075 159.936 430.459 160.288C430.875 160.64 431.451 160.816 432.187 160.816C433.083 160.816 434.107 160.608 435.259 160.192L436.747 165.28C434.699 166.24 432.587 166.72 430.411 166.72ZM444.422 130.96H452.15V137.2H444.422V130.96ZM440.678 160.192H445.286V147.088H440.678V141.28H452.054V160.192H456.182V166H440.678V160.192ZM460.667 141.28H467.291V145.12C469.243 142.112 471.883 140.608 475.211 140.608C477.099 140.608 478.699 141.056 480.011 141.952C481.355 142.816 482.331 144.064 482.939 145.696C484.059 143.936 485.307 142.656 486.683 141.856C488.091 141.024 489.691 140.608 491.483 140.608C494.139 140.608 496.203 141.408 497.675 143.008C499.179 144.576 499.931 146.768 499.931 149.584V166H493.163V150.64C493.163 149.36 492.843 148.368 492.203 147.664C491.595 146.928 490.763 146.56 489.707 146.56C488.395 146.56 487.179 147.104 486.059 148.192C484.939 149.28 484.107 150.672 483.563 152.368V166H476.795V150.64C476.795 149.392 476.475 148.4 475.835 147.664C475.195 146.928 474.347 146.56 473.291 146.56C472.107 146.56 470.987 147.008 469.931 147.904C468.907 148.768 468.075 150 467.435 151.6V166H460.667V141.28ZM517.847 166.72C513.847 166.72 510.695 165.568 508.391 163.264C506.119 160.96 504.983 157.76 504.983 153.664C504.983 151.008 505.479 148.704 506.471 146.752C507.463 144.768 508.855 143.248 510.647 142.192C512.471 141.136 514.599 140.608 517.031 140.608C520.615 140.608 523.367 141.76 525.287 144.064C527.207 146.368 528.167 149.696 528.167 154.048C528.167 154.784 528.151 155.328 528.119 155.68H511.799C512.119 157.376 512.855 158.672 514.007 159.568C515.159 160.432 516.711 160.864 518.663 160.864C519.847 160.864 521.079 160.72 522.359 160.432C523.639 160.112 524.759 159.696 525.719 159.184L526.823 164.608C525.543 165.28 524.119 165.792 522.551 166.144C521.015 166.528 519.447 166.72 517.847 166.72ZM521.687 150.592C521.591 149.216 521.111 148.128 520.247 147.328C519.383 146.496 518.231 146.08 516.791 146.08C515.415 146.08 514.279 146.48 513.383 147.28C512.519 148.08 511.975 149.184 511.751 150.592H521.687ZM541.192 166.72C538.408 166.72 536.216 165.664 534.616 163.552C533.048 161.408 532.264 158.432 532.264 154.624C532.264 150.112 533.432 146.656 535.768 144.256C538.136 141.824 541.496 140.608 545.848 140.608C546.392 140.608 547.208 140.64 548.296 140.704V130.96H554.968V166H548.392L548.536 162.784H548.344C547.512 164.064 546.488 165.04 545.272 165.712C544.088 166.384 542.728 166.72 541.192 166.72ZM542.728 160.816C543.752 160.816 544.744 160.384 545.704 159.52C546.664 158.624 547.528 157.36 548.296 155.728V146.944C547.208 146.656 546.168 146.512 545.176 146.512C543.16 146.512 541.624 147.168 540.568 148.48C539.544 149.792 539.032 151.712 539.032 154.24C539.032 156.288 539.352 157.904 539.992 159.088C540.664 160.24 541.576 160.816 542.728 160.816ZM564.047 130.96H571.775V137.2H564.047V130.96ZM560.303 160.192H564.911V147.088H560.303V141.28H571.679V160.192H575.807V166H560.303V160.192ZM586.975 166.72C584.415 166.72 582.383 165.632 580.879 163.456C579.375 161.28 578.623 158.32 578.623 154.576C578.623 150.032 579.775 146.576 582.079 144.208C584.383 141.808 587.695 140.608 592.015 140.608C594.447 140.608 597.295 140.992 600.559 141.76V166H594.127L594.271 162.064H594.079C593.247 163.568 592.223 164.72 591.007 165.52C589.823 166.32 588.479 166.72 586.975 166.72ZM588.415 160.816C589.407 160.816 590.383 160.288 591.343 159.232C592.303 158.176 593.199 156.768 594.031 155.008V146.944C593.007 146.656 591.983 146.512 590.959 146.512C589.039 146.512 587.583 147.168 586.591 148.48C585.631 149.792 585.151 151.728 585.151 154.288C585.151 156.304 585.439 157.904 586.015 159.088C586.591 160.24 587.391 160.816 588.415 160.816Z" fill="black"/>
<path d="M43.368 143.44L44.3081 143.099L42.372 143.351L43.368 143.44ZM41.352 166V167H42.2666L42.348 166.089L41.352 166ZM35.16 166L34.1644 165.906L34.0609 167H35.16V166ZM38.184 134.032V133.032H37.2741L37.1884 133.938L38.184 134.032ZM46.824 134.032L47.7662 133.697L47.5297 133.032H46.824V134.032ZM54.984 156.976L54.0418 157.311L54.9981 160L55.9293 157.302L54.984 156.976ZM62.904 134.032V133.032H62.1913L61.9587 133.706L62.904 134.032ZM71.544 134.032L72.5398 133.941L72.4566 133.032H71.544V134.032ZM74.472 166V167H75.5678L75.4678 165.909L74.472 166ZM68.232 166L67.2368 166.098L67.3255 167H68.232V166ZM66.024 143.536L67.0192 143.438L65.0863 143.189L66.024 143.536ZM57.576 166.336L57.668 167.332L58.295 167.274L58.5137 166.683L57.576 166.336ZM51.864 166.864L50.9239 167.205L51.1872 167.931L51.956 167.86L51.864 166.864ZM42.372 143.351L40.356 165.911L42.348 166.089L44.364 143.529L42.372 143.351ZM41.352 165H35.16V167H41.352V165ZM36.1556 166.094L39.1796 134.126L37.1884 133.938L34.1644 165.906L36.1556 166.094ZM38.184 135.032H46.824V133.032H38.184V135.032ZM45.8818 134.367L54.0418 157.311L55.9262 156.641L47.7662 133.697L45.8818 134.367ZM55.9293 157.302L63.8493 134.358L61.9587 133.706L54.0387 156.65L55.9293 157.302ZM62.904 135.032H71.544V133.032H62.904V135.032ZM70.5482 134.123L73.4762 166.091L75.4678 165.909L72.5398 133.941L70.5482 134.123ZM74.472 165H68.232V167H74.472V165ZM69.2272 165.902L67.0192 143.438L65.0288 143.634L67.2368 166.098L69.2272 165.902ZM65.0863 143.189L56.6383 165.989L58.5137 166.683L66.9617 143.883L65.0863 143.189ZM57.484 165.34L51.772 165.868L51.956 167.86L57.668 167.332L57.484 165.34ZM52.8041 166.523L44.3081 143.099L42.4279 143.781L50.9239 167.205L52.8041 166.523ZM80.9104 163.456L81.733 162.887L81.733 162.887L80.9104 163.456ZM82.1104 144.208L82.8271 144.905L82.8318 144.901L82.1104 144.208ZM100.59 141.76H101.59V140.968L100.819 140.787L100.59 141.76ZM100.59 166V167H101.59V166H100.59ZM94.1584 166L93.159 165.963L93.1211 167H94.1584V166ZM94.3024 162.064L95.3017 162.101L95.3396 161.064H94.3024V162.064ZM94.1104 162.064V161.064H93.5208L93.2353 161.58L94.1104 162.064ZM91.0384 165.52L90.4887 164.685L90.4785 164.691L91.0384 165.52ZM91.3744 159.232L92.1143 159.905L92.1143 159.905L91.3744 159.232ZM94.0624 155.008L94.9664 155.435L95.0624 155.232V155.008H94.0624ZM94.0624 146.944H95.0624V146.186L94.3331 145.981L94.0624 146.944ZM86.6224 148.48L85.8247 147.877L85.82 147.883L85.8153 147.889L86.6224 148.48ZM86.0464 159.088L85.1471 159.525L85.1519 159.535L86.0464 159.088ZM87.0064 165.72C84.7876 165.72 83.0577 164.804 81.733 162.887L80.0877 164.025C81.7711 166.46 84.1051 167.72 87.0064 167.72V165.72ZM81.733 162.887C80.3834 160.935 79.6544 158.198 79.6544 154.576H77.6544C77.6544 158.442 78.4294 161.625 80.0877 164.025L81.733 162.887ZM79.6544 154.576C79.6544 150.193 80.764 147.026 82.8271 144.905L81.3936 143.511C78.8488 146.126 77.6544 149.871 77.6544 154.576H79.6544ZM82.8318 144.901C84.8953 142.751 87.9134 141.608 92.0464 141.608V139.608C87.5394 139.608 83.9334 140.865 81.389 143.515L82.8318 144.901ZM92.0464 141.608C94.3784 141.608 97.1463 141.977 100.361 142.733L100.819 140.787C97.5064 140.007 94.5783 139.608 92.0464 139.608V141.608ZM99.5904 141.76V166H101.59V141.76H99.5904ZM100.59 165H94.1584V167H100.59V165ZM95.1577 166.037L95.3017 162.101L93.303 162.027L93.159 165.963L95.1577 166.037ZM94.3024 161.064H94.1104V163.064H94.3024V161.064ZM93.2353 161.58C92.4676 162.968 91.5469 163.988 90.4888 164.685L91.588 166.355C92.9618 165.452 94.0892 164.168 94.9854 162.548L93.2353 161.58ZM90.4785 164.691C89.4688 165.374 88.3219 165.72 87.0064 165.72V167.72C88.6989 167.72 90.24 167.266 91.5982 166.349L90.4785 164.691ZM88.4464 161.816C89.8254 161.816 91.0496 161.076 92.1143 159.905L90.6344 158.559C89.7792 159.5 89.0514 159.816 88.4464 159.816V161.816ZM92.1143 159.905C93.1601 158.754 94.1064 157.255 94.9664 155.435L93.1583 154.581C92.3543 156.281 91.5087 157.598 90.6344 158.559L92.1143 159.905ZM95.0624 155.008V146.944H93.0624V155.008H95.0624ZM94.3331 145.981C93.2244 145.67 92.1094 145.512 90.9904 145.512V147.512C91.9193 147.512 92.8523 147.642 93.7916 147.907L94.3331 145.981ZM90.9904 145.512C88.8164 145.512 87.0389 146.271 85.8247 147.877L87.42 149.083C88.1899 148.065 89.3244 147.512 90.9904 147.512V145.512ZM85.8153 147.889C84.6764 149.446 84.1824 151.629 84.1824 154.288H86.1824C86.1824 151.827 86.6483 150.138 87.4294 149.071L85.8153 147.889ZM84.1824 154.288C84.1824 156.383 84.479 158.152 85.1471 159.525L86.9456 158.651C86.4618 157.656 86.1824 156.225 86.1824 154.288H84.1824ZM85.1519 159.535C85.8452 160.922 86.9396 161.816 88.4464 161.816V159.816C87.9052 159.816 87.3996 159.558 86.9408 158.641L85.1519 159.535ZM107.136 141.28V140.28H106.136V141.28H107.136ZM113.76 141.28H114.76V140.28H113.76V141.28ZM113.76 145.552H112.76V149.143L114.616 146.069L113.76 145.552ZM117.312 141.808L117.823 142.667L117.823 142.667L117.312 141.808ZM128.256 143.008L127.527 143.693L127.534 143.7L128.256 143.008ZM130.512 166V167H131.512V166H130.512ZM123.744 166H122.744V167H123.744V166ZM122.784 147.664L122.029 148.32L122.036 148.329L122.044 148.337L122.784 147.664ZM116.544 148L115.903 147.232L115.903 147.232L116.544 148ZM113.904 151.648L112.979 151.266L112.904 151.45V151.648H113.904ZM113.904 166V167H114.904V166H113.904ZM107.136 166H106.136V167H107.136V166ZM107.136 142.28H113.76V140.28H107.136V142.28ZM112.76 141.28V145.552H114.76V141.28H112.76ZM114.616 146.069C115.577 144.477 116.653 143.364 117.823 142.667L116.8 140.949C115.282 141.852 113.99 143.235 112.904 145.035L114.616 146.069ZM117.823 142.667C118.991 141.972 120.377 141.608 122.016 141.608V139.608C120.07 139.608 118.32 140.044 116.8 140.949L117.823 142.667ZM122.016 141.608C124.458 141.608 126.251 142.335 127.527 143.693L128.984 142.323C127.252 140.481 124.885 139.608 122.016 139.608V141.608ZM127.534 143.7C128.811 145.032 129.512 146.947 129.512 149.584H131.512C131.512 146.589 130.708 144.12 128.977 142.316L127.534 143.7ZM129.512 149.584V166H131.512V149.584H129.512ZM130.512 165H123.744V167H130.512V165ZM124.744 166V150.64H122.744V166H124.744ZM124.744 150.64C124.744 149.198 124.382 147.935 123.524 146.991L122.044 148.337C122.466 148.801 122.744 149.522 122.744 150.64H124.744ZM123.538 147.008C122.685 146.027 121.532 145.56 120.192 145.56V147.56C121.028 147.56 121.602 147.829 122.029 148.32L123.538 147.008ZM120.192 145.56C118.639 145.56 117.203 146.149 115.903 147.232L117.184 148.768C118.188 147.931 119.185 147.56 120.192 147.56V145.56ZM115.903 147.232C114.619 148.302 113.645 149.654 112.979 151.266L114.828 152.03C115.378 150.698 116.164 149.618 117.184 148.768L115.903 147.232ZM112.904 151.648V166H114.904V151.648H112.904ZM113.904 165H107.136V167H113.904V165ZM108.136 166V141.28H106.136V166H108.136ZM136.19 175.792L135.213 175.579L135.011 176.509L135.929 176.757L136.19 175.792ZM137.486 169.84L137.766 168.88L136.737 168.58L136.509 169.627L137.486 169.84ZM148.91 170.416L148.414 169.548L148.407 169.552L148.4 169.556L148.91 170.416ZM150.782 168.016L149.839 167.683L149.835 167.696L149.831 167.708L150.782 168.016ZM151.454 163.552L152.454 163.586L152.489 162.552H151.454V163.552ZM151.31 163.552V162.552H150.856L150.558 162.893L151.31 163.552ZM148.19 165.904L148.608 166.813L148.19 165.904ZM137.678 163.552L136.871 164.142L136.876 164.149L136.881 164.156L137.678 163.552ZM138.83 144.208L138.118 143.506L138.114 143.511L138.83 144.208ZM157.982 141.76L158.982 141.75L158.974 140.955L158.197 140.783L157.982 141.76ZM158.03 163.36L157.03 163.339L157.03 163.346L158.03 163.36ZM154.574 173.536L153.867 172.829L153.862 172.834L154.574 173.536ZM148.91 159.712L148.289 158.929L148.282 158.934L148.276 158.939L148.91 159.712ZM151.358 156.592L152.244 157.056L152.359 156.836L152.358 156.587L151.358 156.592ZM151.31 146.944L152.31 146.939L152.306 146.179L151.573 145.979L151.31 146.944ZM143.63 148.48L142.851 147.853L142.847 147.859L142.842 147.865L143.63 148.48ZM143.102 159.088L142.233 159.582L142.241 159.596L142.249 159.609L143.102 159.088ZM144.542 175.896C141.782 175.896 139.085 175.539 136.451 174.827L135.929 176.757C138.735 177.517 141.607 177.896 144.542 177.896V175.896ZM137.167 176.005L138.463 170.053L136.509 169.627L135.213 175.579L137.167 176.005ZM137.206 170.8C140.324 171.709 142.986 172.184 145.166 172.184V170.184C143.251 170.184 140.792 169.763 137.766 168.88L137.206 170.8ZM145.166 172.184C146.877 172.184 148.333 171.92 149.42 171.276L148.4 169.556C147.759 169.936 146.72 170.184 145.166 170.184V172.184ZM149.406 171.284C150.543 170.635 151.314 169.621 151.734 168.324L149.831 167.708C149.547 168.587 149.07 169.173 148.414 169.548L149.406 171.284ZM151.725 168.349C152.158 167.123 152.388 165.52 152.454 163.586L150.455 163.518C150.392 165.36 150.175 166.733 149.839 167.683L151.725 168.349ZM151.454 162.552H151.31V164.552H151.454V162.552ZM150.558 162.893C149.75 163.816 148.823 164.513 147.773 164.995L148.608 166.813C149.925 166.207 151.078 165.336 152.063 164.211L150.558 162.893ZM147.773 164.995C146.73 165.474 145.578 165.72 144.302 165.72V167.72C145.843 167.72 147.282 167.422 148.608 166.813L147.773 164.995ZM144.302 165.72C141.776 165.72 139.873 164.793 138.475 162.948L136.881 164.156C138.684 166.535 141.196 167.72 144.302 167.72V165.72ZM138.485 162.962C137.086 161.048 136.326 158.322 136.326 154.672H134.326C134.326 158.574 135.135 161.768 136.871 164.142L138.485 162.962ZM136.326 154.672C136.326 150.259 137.451 147.059 139.547 144.905L138.114 143.511C135.538 146.157 134.326 149.933 134.326 154.672H136.326ZM139.542 144.91C141.67 142.753 144.758 141.608 148.958 141.608V139.608C144.391 139.608 140.726 140.863 138.118 143.506L139.542 144.91ZM148.958 141.608C151.391 141.608 154.323 141.978 157.767 142.737L158.197 140.783C154.665 140.006 151.581 139.608 148.958 139.608V141.608ZM156.982 141.77C157.046 148.361 157.078 153.317 157.078 156.64H159.078C159.078 153.307 159.046 148.343 158.982 141.75L156.982 141.77ZM157.078 156.64C157.078 159.614 157.062 161.846 157.03 163.339L159.03 163.381C159.062 161.866 159.078 159.618 159.078 156.64H157.078ZM157.03 163.346C156.968 167.743 155.856 170.84 153.867 172.829L155.281 174.243C157.772 171.752 158.964 168.065 159.03 163.374L157.03 163.346ZM153.862 172.834C151.91 174.815 148.869 175.896 144.542 175.896V177.896C149.175 177.896 152.823 176.737 155.286 174.238L153.862 172.834ZM146.078 161.816C147.34 161.816 148.502 161.342 149.545 160.485L148.276 158.939C147.527 159.554 146.801 159.816 146.078 159.816V161.816ZM149.532 160.495C150.595 159.652 151.493 158.49 152.244 157.056L150.472 156.128C149.816 157.382 149.081 158.3 148.289 158.929L149.532 160.495ZM152.358 156.587L152.31 146.939L150.31 146.949L150.358 156.597L152.358 156.587ZM151.573 145.979C150.44 145.67 149.328 145.512 148.238 145.512V147.512C149.133 147.512 150.068 147.642 151.047 147.909L151.573 145.979ZM148.238 145.512C145.986 145.512 144.135 146.258 142.851 147.853L144.409 149.107C145.237 148.078 146.459 147.512 148.238 147.512V145.512ZM142.842 147.865C141.627 149.421 141.094 151.579 141.094 154.192H143.094C143.094 151.813 143.585 150.163 144.419 149.095L142.842 147.865ZM141.094 154.192C141.094 156.361 141.442 158.188 142.233 159.582L143.972 158.594C143.419 157.62 143.094 156.183 143.094 154.192H141.094ZM142.249 159.609C143.123 161.039 144.427 161.816 146.078 161.816V159.816C145.169 159.816 144.49 159.441 143.956 158.567L142.249 159.609ZM166.437 163.264L165.725 163.966L165.73 163.971L166.437 163.264ZM164.517 146.752L165.409 147.205L165.412 147.199L164.517 146.752ZM168.693 142.192L168.192 141.327L168.186 141.33L168.693 142.192ZM183.333 144.064L184.102 143.424L184.102 143.424L183.333 144.064ZM186.165 155.68V156.68H187.079L187.161 155.771L186.165 155.68ZM169.845 155.68V154.68H168.639L168.863 155.865L169.845 155.68ZM172.053 159.568L171.439 160.357L171.446 160.363L171.453 160.368L172.053 159.568ZM180.405 160.432L180.625 161.408L180.636 161.405L180.648 161.402L180.405 160.432ZM183.765 159.184L184.745 158.985L184.478 157.671L183.295 158.302L183.765 159.184ZM184.869 164.608L185.334 165.493L185.999 165.144L185.849 164.409L184.869 164.608ZM180.597 166.144L180.378 165.168L180.367 165.171L180.355 165.174L180.597 166.144ZM179.733 150.592V151.592H180.806L180.731 150.522L179.733 150.592ZM178.293 147.328L177.6 148.048L177.607 148.055L177.614 148.062L178.293 147.328ZM171.429 147.28L170.763 146.534L170.757 146.54L170.75 146.546L171.429 147.28ZM169.797 150.592L168.81 150.435L168.626 151.592H169.797V150.592ZM175.893 165.72C172.094 165.72 169.22 164.632 167.144 162.557L165.73 163.971C168.263 166.504 171.692 167.72 175.893 167.72V165.72ZM167.149 162.562C165.108 160.491 164.029 157.571 164.029 153.664H162.029C162.029 157.949 163.223 161.429 165.725 163.966L167.149 162.562ZM164.029 153.664C164.029 151.132 164.502 148.99 165.409 147.205L163.626 146.299C162.549 148.418 162.029 150.884 162.029 153.664H164.029ZM165.412 147.199C166.324 145.376 167.586 144.005 169.201 143.054L168.186 141.33C166.216 142.491 164.695 144.16 163.623 146.305L165.412 147.199ZM169.194 143.057C170.844 142.102 172.794 141.608 175.077 141.608V139.608C172.497 139.608 170.191 140.17 168.192 141.327L169.194 143.057ZM175.077 141.608C178.429 141.608 180.873 142.673 182.565 144.704L184.102 143.424C181.954 140.847 178.894 139.608 175.077 139.608V141.608ZM182.565 144.704C184.281 146.763 185.213 149.827 185.213 154.048H187.213C187.213 149.565 186.226 145.973 184.102 143.424L182.565 144.704ZM185.213 154.048C185.213 154.779 185.197 155.285 185.169 155.589L187.161 155.771C187.198 155.371 187.213 154.789 187.213 154.048H185.213ZM186.165 154.68H169.845V156.68H186.165V154.68ZM168.863 155.865C169.219 157.755 170.061 159.285 171.439 160.357L172.667 158.779C171.742 158.059 171.112 156.997 170.828 155.495L168.863 155.865ZM171.453 160.368C172.831 161.401 174.617 161.864 176.709 161.864V159.864C174.898 159.864 173.58 159.463 172.653 158.768L171.453 160.368ZM176.709 161.864C177.975 161.864 179.28 161.71 180.625 161.408L180.186 159.456C178.97 159.73 177.812 159.864 176.709 159.864V161.864ZM180.648 161.402C181.991 161.066 183.19 160.624 184.236 160.066L183.295 158.302C182.42 158.768 181.38 159.158 180.163 159.462L180.648 161.402ZM182.785 159.383L183.889 164.807L185.849 164.409L184.745 158.985L182.785 159.383ZM184.405 163.723C183.21 164.35 181.87 164.833 180.378 165.168L180.816 167.12C182.461 166.751 183.968 166.21 185.334 165.493L184.405 163.723ZM180.355 165.174C178.899 165.538 177.412 165.72 175.893 165.72V167.72C177.574 167.72 179.224 167.518 180.84 167.114L180.355 165.174ZM180.731 150.522C180.62 148.939 180.055 147.596 178.973 146.594L177.614 148.062C178.26 148.66 178.654 149.493 178.736 150.662L180.731 150.522ZM178.987 146.608C177.9 145.561 176.481 145.08 174.837 145.08V147.08C176.074 147.08 176.958 147.431 177.6 148.048L178.987 146.608ZM174.837 145.08C173.254 145.08 171.869 145.547 170.763 146.534L172.095 148.026C172.782 147.413 173.669 147.08 174.837 147.08V145.08ZM170.75 146.546C169.689 147.529 169.061 148.854 168.81 150.435L170.785 150.749C170.981 149.514 171.442 148.631 172.109 148.014L170.75 146.546ZM169.797 151.592H179.733V149.592H169.797V151.592ZM208.134 143.44L209.074 143.099L207.138 143.351L208.134 143.44ZM206.118 166V167H207.032L207.114 166.089L206.118 166ZM199.926 166L198.93 165.906L198.827 167H199.926V166ZM202.95 134.032V133.032H202.04L201.954 133.938L202.95 134.032ZM211.59 134.032L212.532 133.697L212.295 133.032H211.59V134.032ZM219.75 156.976L218.807 157.311L219.764 160L220.695 157.302L219.75 156.976ZM227.67 134.032V133.032H226.957L226.724 133.706L227.67 134.032ZM236.31 134.032L237.305 133.941L237.222 133.032H236.31V134.032ZM239.238 166V167H240.333L240.233 165.909L239.238 166ZM232.998 166L232.002 166.098L232.091 167H232.998V166ZM230.79 143.536L231.785 143.438L229.852 143.189L230.79 143.536ZM222.342 166.336L222.434 167.332L223.061 167.274L223.279 166.683L222.342 166.336ZM216.63 166.864L215.69 167.205L215.953 167.931L216.722 167.86L216.63 166.864ZM207.138 143.351L205.122 165.911L207.114 166.089L209.13 143.529L207.138 143.351ZM206.118 165H199.926V167H206.118V165ZM200.921 166.094L203.945 134.126L201.954 133.938L198.93 165.906L200.921 166.094ZM202.95 135.032H211.59V133.032H202.95V135.032ZM210.647 134.367L218.807 157.311L220.692 156.641L212.532 133.697L210.647 134.367ZM220.695 157.302L228.615 134.358L226.724 133.706L218.804 156.65L220.695 157.302ZM227.67 135.032H236.31V133.032H227.67V135.032ZM235.314 134.123L238.242 166.091L240.233 165.909L237.305 133.941L235.314 134.123ZM239.238 165H232.998V167H239.238V165ZM233.993 165.902L231.785 143.438L229.794 143.634L232.002 166.098L233.993 165.902ZM229.852 143.189L221.404 165.989L223.279 166.683L231.727 143.883L229.852 143.189ZM222.25 165.34L216.538 165.868L216.722 167.86L222.434 167.332L222.25 165.34ZM217.57 166.523L209.074 143.099L207.194 143.781L215.69 167.205L217.57 166.523ZM246.828 163.264L246.116 163.966L246.121 163.971L246.828 163.264ZM244.908 146.752L245.8 147.205L245.802 147.199L244.908 146.752ZM249.084 142.192L248.583 141.327L248.576 141.33L249.084 142.192ZM263.724 144.064L264.492 143.424L264.492 143.424L263.724 144.064ZM266.556 155.68V156.68H267.469L267.552 155.771L266.556 155.68ZM250.236 155.68V154.68H249.03L249.253 155.865L250.236 155.68ZM252.444 159.568L251.83 160.357L251.837 160.363L251.844 160.368L252.444 159.568ZM260.796 160.432L261.016 161.408L261.027 161.405L261.039 161.402L260.796 160.432ZM264.156 159.184L265.136 158.985L264.868 157.671L263.685 158.302L264.156 159.184ZM265.26 164.608L265.725 165.493L266.39 165.144L266.24 164.409L265.26 164.608ZM260.988 166.144L260.769 165.168L260.757 165.171L260.745 165.174L260.988 166.144ZM260.124 150.592V151.592H261.196L261.122 150.522L260.124 150.592ZM258.684 147.328L257.99 148.048L257.997 148.055L258.005 148.062L258.684 147.328ZM251.82 147.28L251.154 146.534L251.147 146.54L251.141 146.546L251.82 147.28ZM250.188 150.592L249.2 150.435L249.016 151.592H250.188V150.592ZM256.284 165.72C252.485 165.72 249.611 164.632 247.535 162.557L246.121 163.971C248.653 166.504 252.083 167.72 256.284 167.72V165.72ZM247.54 162.562C245.498 160.491 244.42 157.571 244.42 153.664H242.42C242.42 157.949 243.614 161.429 246.116 163.966L247.54 162.562ZM244.42 153.664C244.42 151.132 244.892 148.99 245.799 147.205L244.017 146.299C242.94 148.418 242.42 150.884 242.42 153.664H244.42ZM245.802 147.199C246.714 145.376 247.977 144.005 249.592 143.054L248.576 141.33C246.607 142.491 245.086 144.16 244.014 146.305L245.802 147.199ZM249.585 143.057C251.235 142.102 253.185 141.608 255.468 141.608V139.608C252.887 139.608 250.581 140.17 248.583 141.327L249.585 143.057ZM255.468 141.608C258.819 141.608 261.263 142.673 262.956 144.704L264.492 143.424C262.345 140.847 259.285 139.608 255.468 139.608V141.608ZM262.956 144.704C264.671 146.763 265.604 149.827 265.604 154.048H267.604C267.604 149.565 266.617 145.973 264.492 143.424L262.956 144.704ZM265.604 154.048C265.604 154.779 265.588 155.285 265.56 155.589L267.552 155.771C267.588 155.371 267.604 154.789 267.604 154.048H265.604ZM266.556 154.68H250.236V156.68H266.556V154.68ZM249.253 155.865C249.61 157.755 250.452 159.285 251.83 160.357L253.058 158.779C252.132 158.059 251.502 156.997 251.219 155.495L249.253 155.865ZM251.844 160.368C253.221 161.401 255.008 161.864 257.1 161.864V159.864C255.288 159.864 253.971 159.463 253.044 158.768L251.844 160.368ZM257.1 161.864C258.365 161.864 259.671 161.71 261.016 161.408L260.576 159.456C259.361 159.73 258.203 159.864 257.1 159.864V161.864ZM261.039 161.402C262.382 161.066 263.581 160.624 264.627 160.066L263.685 158.302C262.811 158.768 261.77 159.158 260.553 159.462L261.039 161.402ZM263.176 159.383L264.28 164.807L266.24 164.409L265.136 158.985L263.176 159.383ZM264.795 163.723C263.601 164.35 262.261 164.833 260.769 165.168L261.207 167.12C262.851 166.751 264.359 166.21 265.725 165.493L264.795 163.723ZM260.745 165.174C259.29 165.538 257.803 165.72 256.284 165.72V167.72C257.965 167.72 259.614 167.518 261.231 167.114L260.745 165.174ZM261.122 150.522C261.011 148.939 260.446 147.596 259.363 146.594L258.005 148.062C258.65 148.66 259.045 149.493 259.126 150.662L261.122 150.522ZM259.378 146.608C258.291 145.561 256.871 145.08 255.228 145.08V147.08C256.465 147.08 257.349 147.431 257.99 148.048L259.378 146.608ZM255.228 145.08C253.644 145.08 252.26 145.547 251.154 146.534L252.486 148.026C253.172 147.413 254.06 147.08 255.228 147.08V145.08ZM251.141 146.546C250.08 147.529 249.452 148.854 249.2 150.435L251.176 150.749C251.372 149.514 251.832 148.631 252.499 148.014L251.141 146.546ZM250.188 151.592H260.124V149.592H250.188V151.592ZM273.869 163.456L273.172 164.173L273.178 164.178L273.869 163.456ZM272.093 147.136L272.982 147.594L272.985 147.589L272.093 147.136ZM276.557 142.336L277.061 143.2L277.072 143.193L276.557 142.336ZM286.925 141.04L286.706 142.016L286.72 142.019L286.734 142.021L286.925 141.04ZM289.949 141.952L290.924 142.173L291.098 141.408L290.396 141.058L289.949 141.952ZM288.653 147.664L288.222 148.566L289.351 149.106L289.628 147.885L288.653 147.664ZM286.205 146.848L285.954 147.816L285.975 147.821L285.996 147.826L286.205 146.848ZM278.957 148.528L278.216 147.857L278.207 147.867L278.957 148.528ZM279.005 159.04L278.298 159.747L278.307 159.756L279.005 159.04ZM289.133 160L290.117 159.819L289.908 158.688L288.817 159.051L289.133 160ZM290.141 165.472L290.513 166.4L291.273 166.096L291.125 165.291L290.141 165.472ZM283.421 165.72C279.502 165.72 276.596 164.683 274.561 162.734L273.178 164.178C275.687 166.581 279.148 167.72 283.421 167.72V165.72ZM274.566 162.739C272.569 160.799 271.509 158.015 271.509 154.24H269.509C269.509 158.401 270.689 161.761 273.172 164.173L274.566 162.739ZM271.509 154.24C271.509 151.685 272.01 149.479 272.982 147.594L271.204 146.678C270.064 148.889 269.509 151.419 269.509 154.24H271.509ZM272.985 147.589C273.958 145.671 275.316 144.218 277.061 143.2L276.053 141.472C273.959 142.694 272.34 144.441 271.202 146.683L272.985 147.589ZM277.072 143.193C278.817 142.146 280.859 141.608 283.229 141.608V139.608C280.544 139.608 278.137 140.222 276.043 141.479L277.072 143.193ZM283.229 141.608C284.332 141.608 285.49 141.742 286.706 142.016L287.145 140.064C285.8 139.762 284.495 139.608 283.229 139.608V141.608ZM286.734 142.021C288.01 142.27 288.916 142.553 289.502 142.846L290.396 141.058C289.575 140.647 288.465 140.322 287.117 140.059L286.734 142.021ZM288.974 141.731L287.678 147.443L289.628 147.885L290.924 142.173L288.974 141.731ZM289.085 146.762C288.27 146.372 287.378 146.077 286.415 145.87L285.996 147.826C286.824 148.003 287.565 148.252 288.222 148.566L289.085 146.762ZM286.456 145.88C285.523 145.638 284.622 145.512 283.757 145.512V147.512C284.428 147.512 285.159 147.61 285.954 147.816L286.456 145.88ZM283.757 145.512C281.521 145.512 279.64 146.282 278.216 147.857L279.699 149.199C280.706 148.086 282.026 147.512 283.757 147.512V145.512ZM278.207 147.867C276.827 149.433 276.181 151.464 276.181 153.856H278.181C278.181 151.832 278.72 150.311 279.708 149.189L278.207 147.867ZM276.181 153.856C276.181 156.278 276.843 158.292 278.298 159.747L279.712 158.333C278.736 157.356 278.181 155.914 278.181 153.856H276.181ZM278.307 159.756C279.794 161.204 281.835 161.864 284.285 161.864V159.864C282.192 159.864 280.713 159.308 279.703 158.324L278.307 159.756ZM284.285 161.864C285.917 161.864 287.64 161.552 289.449 160.949L288.817 159.051C287.17 159.6 285.662 159.864 284.285 159.864V161.864ZM288.15 160.181L289.158 165.653L291.125 165.291L290.117 159.819L288.15 160.181ZM289.77 164.544C287.816 165.325 285.703 165.72 283.421 165.72V167.72C285.939 167.72 288.306 167.283 290.513 166.4L289.77 164.544ZM301.732 155.248L302.521 154.634L300.732 152.335V155.248H301.732ZM301.732 166V167H302.732V166H301.732ZM294.964 166H293.964V167H294.964V166ZM294.964 130.912V129.912H293.964V130.912H294.964ZM301.732 130.912H302.732V129.912H301.732V130.912ZM301.732 150.304H300.732V153.009L302.491 150.954L301.732 150.304ZM309.46 141.28V140.28H309L308.7 140.63L309.46 141.28ZM317.476 141.28L318.222 141.946L319.707 140.28H317.476V141.28ZM307.588 152.368L306.841 151.702L306.286 152.325L306.799 152.983L307.588 152.368ZM318.004 165.712L318.14 166.703L319.861 166.466L318.792 165.097L318.004 165.712ZM310.66 166.72L309.871 167.334L310.225 167.789L310.796 167.711L310.66 166.72ZM300.732 155.248V166H302.732V155.248H300.732ZM301.732 165H294.964V167H301.732V165ZM295.964 166V130.912H293.964V166H295.964ZM294.964 131.912H301.732V129.912H294.964V131.912ZM300.732 130.912V150.304H302.732V130.912H300.732ZM302.491 150.954L310.219 141.93L308.7 140.63L300.972 149.654L302.491 150.954ZM309.46 142.28H317.476V140.28H309.46V142.28ZM316.729 140.614L306.841 151.702L308.334 153.034L318.222 141.946L316.729 140.614ZM306.799 152.983L317.215 166.327L318.792 165.097L308.376 151.753L306.799 152.983ZM317.868 164.721L310.524 165.729L310.796 167.711L318.14 166.703L317.868 164.721ZM311.449 166.106L302.521 154.634L300.943 155.862L309.871 167.334L311.449 166.106ZM337.977 143.44L338.917 143.099L336.981 143.351L337.977 143.44ZM335.961 166V167H336.876L336.957 166.089L335.961 166ZM329.769 166L328.774 165.906L328.67 167H329.769V166ZM332.793 134.032V133.032H331.884L331.798 133.938L332.793 134.032ZM341.433 134.032L342.376 133.697L342.139 133.032H341.433V134.032ZM349.593 156.976L348.651 157.311L349.607 160L350.539 157.302L349.593 156.976ZM357.513 134.032V133.032H356.801L356.568 133.706L357.513 134.032ZM366.153 134.032L367.149 133.941L367.066 133.032H366.153V134.032ZM369.081 166V167H370.177L370.077 165.909L369.081 166ZM362.841 166L361.846 166.098L361.935 167H362.841V166ZM360.633 143.536L361.629 143.438L359.696 143.189L360.633 143.536ZM352.185 166.336L352.277 167.332L352.904 167.274L353.123 166.683L352.185 166.336ZM346.473 166.864L345.533 167.205L345.797 167.931L346.565 167.86L346.473 166.864ZM336.981 143.351L334.965 165.911L336.957 166.089L338.973 143.529L336.981 143.351ZM335.961 165H329.769V167H335.961V165ZM330.765 166.094L333.789 134.126L331.798 133.938L328.774 165.906L330.765 166.094ZM332.793 135.032H341.433V133.032H332.793V135.032ZM340.491 134.367L348.651 157.311L350.536 156.641L342.376 133.697L340.491 134.367ZM350.539 157.302L358.459 134.358L356.568 133.706L348.648 156.65L350.539 157.302ZM357.513 135.032H366.153V133.032H357.513V135.032ZM365.158 134.123L368.086 166.091L370.077 165.909L367.149 133.941L365.158 134.123ZM369.081 165H362.841V167H369.081V165ZM363.837 165.902L361.629 143.438L359.638 143.634L361.846 166.098L363.837 165.902ZM359.696 143.189L351.248 165.989L353.123 166.683L361.571 143.883L359.696 143.189ZM352.093 165.34L346.381 165.868L346.565 167.86L352.277 167.332L352.093 165.34ZM347.413 166.523L338.917 143.099L337.037 143.781L345.533 167.205L347.413 166.523ZM376.48 164.272L377.208 163.587L376.48 164.272ZM374.224 141.28V140.28H373.224V141.28H374.224ZM380.992 141.28H381.992V140.28H380.992V141.28ZM381.952 159.664L381.197 160.32L381.204 160.329L381.212 160.337L381.952 159.664ZM387.664 159.664L387.097 158.84L387.091 158.844L387.085 158.848L387.664 159.664ZM390.208 156.832L391.077 157.326L391.208 157.096V156.832H390.208ZM390.208 141.28V140.28H389.208V141.28H390.208ZM396.976 141.28H397.976V140.28H396.976V141.28ZM396.976 166V167H397.976V166H396.976ZM390.208 166H389.208V167H390.208V166ZM390.208 162.736H391.208V159.715L389.405 162.139L390.208 162.736ZM386.992 165.664L387.485 166.534L387.493 166.529L386.992 165.664ZM382.672 165.672C380.265 165.672 378.487 164.947 377.208 163.587L375.751 164.957C377.481 166.797 379.83 167.672 382.672 167.672V165.672ZM377.208 163.587C375.922 162.218 375.224 160.296 375.224 157.696H373.224C373.224 160.664 374.03 163.126 375.751 164.957L377.208 163.587ZM375.224 157.696V141.28H373.224V157.696H375.224ZM374.224 142.28H380.992V140.28H374.224V142.28ZM379.992 141.28V156.592H381.992V141.28H379.992ZM379.992 156.592C379.992 158.061 380.351 159.348 381.197 160.32L382.706 159.008C382.272 158.508 381.992 157.747 381.992 156.592H379.992ZM381.212 160.337C382.069 161.28 383.219 161.72 384.544 161.72V159.72C383.693 159.72 383.114 159.456 382.692 158.991L381.212 160.337ZM384.544 161.72C385.863 161.72 387.102 161.289 388.242 160.48L387.085 158.848C386.241 159.447 385.4 159.72 384.544 159.72V161.72ZM388.23 160.488C389.391 159.69 390.338 158.629 391.077 157.326L389.338 156.338C388.734 157.403 387.985 158.23 387.097 158.84L388.23 160.488ZM391.208 156.832V141.28H389.208V156.832H391.208ZM390.208 142.28H396.976V140.28H390.208V142.28ZM395.976 141.28V166H397.976V141.28H395.976ZM396.976 165H390.208V167H396.976V165ZM391.208 166V162.736H389.208V166H391.208ZM389.405 162.139C388.55 163.29 387.577 164.17 386.491 164.799L387.493 166.529C388.838 165.75 390.01 164.678 391.01 163.333L389.405 162.139ZM386.498 164.794C385.497 165.362 384.237 165.672 382.672 165.672V167.672C384.499 167.672 386.118 167.31 387.485 166.534L386.498 164.794ZM402.094 160.192V159.192H401.094V160.192H402.094ZM406.462 160.192V161.192H407.462V160.192H406.462ZM406.462 136.72H407.462V135.72H406.462V136.72ZM402.334 136.72H401.334V137.72H402.334V136.72ZM402.334 130.96V129.96H401.334V130.96H402.334ZM413.23 130.96H414.23V129.96H413.23V130.96ZM413.23 160.192H412.23V161.192H413.23V160.192ZM417.598 160.192H418.598V159.192H417.598V160.192ZM417.598 166V167H418.598V166H417.598ZM402.094 166H401.094V167H402.094V166ZM402.094 161.192H406.462V159.192H402.094V161.192ZM407.462 160.192V136.72H405.462V160.192H407.462ZM406.462 135.72H402.334V137.72H406.462V135.72ZM403.334 136.72V130.96H401.334V136.72H403.334ZM402.334 131.96H413.23V129.96H402.334V131.96ZM412.23 130.96V160.192H414.23V130.96H412.23ZM413.23 161.192H417.598V159.192H413.23V161.192ZM416.598 160.192V166H418.598V160.192H416.598ZM417.598 165H402.094V167H417.598V165ZM403.094 166V160.192H401.094V166H403.094ZM425.035 164.992L424.346 165.717L424.356 165.727L424.366 165.735L425.035 164.992ZM423.163 147.088H424.163V146.088H423.163V147.088ZM419.323 147.088H418.323V148.088H419.323V147.088ZM419.323 141.28V140.28H418.323V141.28H419.323ZM423.163 141.28V142.28H424.163V141.28H423.163ZM423.163 136L422.996 135.014L422.163 135.155V136H423.163ZM429.883 135.136H430.883V134.045L429.796 134.14L429.883 135.136ZM429.883 141.28H428.883V142.28H429.883V141.28ZM436.123 141.28H437.123V140.28H436.123V141.28ZM436.123 147.088V148.088H437.123V147.088H436.123ZM429.883 147.088V146.088H428.883V147.088H429.883ZM430.459 160.288L429.783 161.025L429.798 161.039L429.813 161.051L430.459 160.288ZM435.259 160.192L436.219 159.911L435.92 158.89L434.919 159.251L435.259 160.192ZM436.747 165.28L437.171 166.185L437.947 165.822L437.707 164.999L436.747 165.28ZM430.411 165.72C428.269 165.72 426.746 165.186 425.704 164.249L424.366 165.735C425.884 167.102 427.945 167.72 430.411 167.72V165.72ZM425.723 164.267C424.721 163.316 424.163 161.942 424.163 160H422.163C422.163 162.346 422.853 164.3 424.346 165.717L425.723 164.267ZM424.163 160V147.088H422.163V160H424.163ZM423.163 146.088H419.323V148.088H423.163V146.088ZM420.323 147.088V141.28H418.323V147.088H420.323ZM419.323 142.28H423.163V140.28H419.323V142.28ZM424.163 141.28V136H422.163V141.28H424.163ZM423.329 136.986C425.576 136.606 427.789 136.322 429.969 136.132L429.796 134.14C427.56 134.334 425.294 134.626 422.996 135.014L423.329 136.986ZM428.883 135.136V141.28H430.883V135.136H428.883ZM429.883 142.28H436.123V140.28H429.883V142.28ZM435.123 141.28V147.088H437.123V141.28H435.123ZM436.123 146.088H429.883V148.088H436.123V146.088ZM428.883 147.088V158.752H430.883V147.088H428.883ZM428.883 158.752C428.883 159.618 429.136 160.432 429.783 161.025L431.134 159.551C431.013 159.44 430.883 159.23 430.883 158.752H428.883ZM429.813 161.051C430.464 161.602 431.297 161.816 432.187 161.816V159.816C431.604 159.816 431.285 159.678 431.105 159.525L429.813 161.051ZM432.187 161.816C433.232 161.816 434.375 161.574 435.598 161.133L434.919 159.251C433.839 159.642 432.933 159.816 432.187 159.816V161.816ZM434.299 160.473L435.787 165.561L437.707 164.999L436.219 159.911L434.299 160.473ZM436.322 164.375C434.402 165.275 432.434 165.72 430.411 165.72V167.72C432.739 167.72 434.996 167.205 437.171 166.185L436.322 164.375ZM444.422 130.96V129.96H443.422V130.96H444.422ZM452.15 130.96H453.15V129.96H452.15V130.96ZM452.15 137.2V138.2H453.15V137.2H452.15ZM444.422 137.2H443.422V138.2H444.422V137.2ZM440.678 160.192V159.192H439.678V160.192H440.678ZM445.286 160.192V161.192H446.286V160.192H445.286ZM445.286 147.088H446.286V146.088H445.286V147.088ZM440.678 147.088H439.678V148.088H440.678V147.088ZM440.678 141.28V140.28H439.678V141.28H440.678ZM452.054 141.28H453.054V140.28H452.054V141.28ZM452.054 160.192H451.054V161.192H452.054V160.192ZM456.182 160.192H457.182V159.192H456.182V160.192ZM456.182 166V167H457.182V166H456.182ZM440.678 166H439.678V167H440.678V166ZM444.422 131.96H452.15V129.96H444.422V131.96ZM451.15 130.96V137.2H453.15V130.96H451.15ZM452.15 136.2H444.422V138.2H452.15V136.2ZM445.422 137.2V130.96H443.422V137.2H445.422ZM440.678 161.192H445.286V159.192H440.678V161.192ZM446.286 160.192V147.088H444.286V160.192H446.286ZM445.286 146.088H440.678V148.088H445.286V146.088ZM441.678 147.088V141.28H439.678V147.088H441.678ZM440.678 142.28H452.054V140.28H440.678V142.28ZM451.054 141.28V160.192H453.054V141.28H451.054ZM452.054 161.192H456.182V159.192H452.054V161.192ZM455.182 160.192V166H457.182V160.192H455.182ZM456.182 165H440.678V167H456.182V165ZM441.678 166V160.192H439.678V166H441.678ZM460.667 141.28V140.28H459.667V141.28H460.667ZM467.291 141.28H468.291V140.28H467.291V141.28ZM467.291 145.12H466.291V148.498L468.13 145.664L467.291 145.12ZM480.011 141.952L479.447 142.778L479.458 142.786L479.47 142.793L480.011 141.952ZM482.939 145.696L482.002 146.045L482.703 147.929L483.783 146.233L482.939 145.696ZM486.683 141.856L487.186 142.721L487.192 142.717L486.683 141.856ZM497.675 143.008L496.939 143.685L496.946 143.693L496.953 143.7L497.675 143.008ZM499.931 166V167H500.931V166H499.931ZM493.163 166H492.163V167H493.163V166ZM492.203 147.664L491.432 148.301L491.447 148.319L491.463 148.337L492.203 147.664ZM486.059 148.192L486.756 148.909L486.756 148.909L486.059 148.192ZM483.563 152.368L482.611 152.063L482.563 152.212V152.368H483.563ZM483.563 166V167H484.563V166H483.563ZM476.795 166H475.795V167H476.795V166ZM475.835 147.664L475.08 148.32L475.08 148.32L475.835 147.664ZM469.931 147.904L470.576 148.668L470.578 148.667L469.931 147.904ZM467.435 151.6L466.506 151.229L466.435 151.407V151.6H467.435ZM467.435 166V167H468.435V166H467.435ZM460.667 166H459.667V167H460.667V166ZM460.667 142.28H467.291V140.28H460.667V142.28ZM466.291 141.28V145.12H468.291V141.28H466.291ZM468.13 145.664C469.914 142.914 472.252 141.608 475.211 141.608V139.608C471.514 139.608 468.571 141.31 466.452 144.576L468.13 145.664ZM475.211 141.608C476.936 141.608 478.33 142.015 479.447 142.778L480.575 141.126C479.067 140.097 477.261 139.608 475.211 139.608V141.608ZM479.47 142.793C480.616 143.53 481.462 144.596 482.002 146.045L483.876 145.347C483.2 143.532 482.094 142.102 480.552 141.111L479.47 142.793ZM483.783 146.233C484.842 144.567 485.984 143.419 487.185 142.721L486.18 140.991C484.63 141.893 483.275 143.305 482.095 145.159L483.783 146.233ZM487.192 142.717C488.431 141.985 489.852 141.608 491.483 141.608V139.608C489.53 139.608 487.751 140.063 486.174 140.995L487.192 142.717ZM491.483 141.608C493.926 141.608 495.697 142.335 496.939 143.685L498.411 142.331C496.708 140.481 494.352 139.608 491.483 139.608V141.608ZM496.953 143.7C498.23 145.032 498.931 146.947 498.931 149.584H500.931C500.931 146.589 500.127 144.12 498.397 142.316L496.953 143.7ZM498.931 149.584V166H500.931V149.584H498.931ZM499.931 165H493.163V167H499.931V165ZM494.163 166V150.64H492.163V166H494.163ZM494.163 150.64C494.163 149.198 493.801 147.935 492.943 146.991L491.463 148.337C491.885 148.801 492.163 149.522 492.163 150.64H494.163ZM492.974 147.027C492.154 146.035 491.025 145.56 489.707 145.56V147.56C490.5 147.56 491.036 147.821 491.432 148.301L492.974 147.027ZM489.707 145.56C488.086 145.56 486.631 146.242 485.362 147.475L486.756 148.909C487.727 147.966 488.704 147.56 489.707 147.56V145.56ZM485.362 147.475C484.109 148.692 483.198 150.233 482.611 152.063L484.515 152.673C485.016 151.111 485.769 149.868 486.756 148.909L485.362 147.475ZM482.563 152.368V166H484.563V152.368H482.563ZM483.563 165H476.795V167H483.563V165ZM477.795 166V150.64H475.795V166H477.795ZM477.795 150.64C477.795 149.22 477.428 147.972 476.589 147.008L475.08 148.32C475.522 148.828 475.795 149.564 475.795 150.64H477.795ZM476.589 147.008C475.743 146.034 474.609 145.56 473.291 145.56V147.56C474.084 147.56 474.647 147.822 475.08 148.32L476.589 147.008ZM473.291 145.56C471.831 145.56 470.488 146.12 469.284 147.141L470.578 148.667C471.485 147.896 472.383 147.56 473.291 147.56V145.56ZM469.286 147.14C468.106 148.135 467.19 149.519 466.506 151.229L468.363 151.971C468.959 150.481 469.708 149.401 470.576 148.668L469.286 147.14ZM466.435 151.6V166H468.435V151.6H466.435ZM467.435 165H460.667V167H467.435V165ZM461.667 166V141.28H459.667V166H461.667ZM508.391 163.264L507.678 163.966L507.683 163.971L508.391 163.264ZM506.471 146.752L507.362 147.205L507.365 147.199L506.471 146.752ZM510.647 142.192L510.145 141.327L510.139 141.33L510.647 142.192ZM525.287 144.064L526.055 143.424L526.055 143.424L525.287 144.064ZM528.119 155.68V156.68H529.032L529.114 155.771L528.119 155.68ZM511.799 155.68V154.68H510.592L510.816 155.865L511.799 155.68ZM514.007 159.568L513.393 160.357L513.399 160.363L513.407 160.368L514.007 159.568ZM522.359 160.432L522.578 161.408L522.59 161.405L522.601 161.402L522.359 160.432ZM525.719 159.184L526.698 158.985L526.431 157.671L525.248 158.302L525.719 159.184ZM526.823 164.608L527.287 165.493L527.952 165.144L527.802 164.409L526.823 164.608ZM522.551 166.144L522.331 165.168L522.32 165.171L522.308 165.174L522.551 166.144ZM521.687 150.592V151.592H522.759L522.684 150.522L521.687 150.592ZM520.247 147.328L519.553 148.048L519.56 148.055L519.567 148.062L520.247 147.328ZM513.383 147.28L512.716 146.534L512.71 146.54L512.703 146.546L513.383 147.28ZM511.751 150.592L510.763 150.435L510.579 151.592H511.751V150.592ZM517.847 165.72C514.048 165.72 511.173 164.632 509.098 162.557L507.683 163.971C510.216 166.504 513.645 167.72 517.847 167.72V165.72ZM509.103 162.562C507.061 160.491 505.983 157.571 505.983 153.664H503.983C503.983 157.949 505.176 161.429 507.678 163.966L509.103 162.562ZM505.983 153.664C505.983 151.132 506.455 148.99 507.362 147.205L505.579 146.299C504.502 148.418 503.983 150.884 503.983 153.664H505.983ZM507.365 147.199C508.277 145.376 509.54 144.005 511.154 143.054L510.139 141.33C508.169 142.491 506.648 144.16 505.576 146.305L507.365 147.199ZM511.148 143.057C512.797 142.102 514.747 141.608 517.031 141.608V139.608C514.45 139.608 512.144 140.17 510.145 141.327L511.148 143.057ZM517.031 141.608C520.382 141.608 522.826 142.673 524.518 144.704L526.055 143.424C523.907 140.847 520.847 139.608 517.031 139.608V141.608ZM524.518 144.704C526.234 146.763 527.167 149.827 527.167 154.048H529.167C529.167 149.565 528.179 145.973 526.055 143.424L524.518 144.704ZM527.167 154.048C527.167 154.779 527.15 155.285 527.123 155.589L529.114 155.771C529.151 155.371 529.167 154.789 529.167 154.048H527.167ZM528.119 154.68H511.799V156.68H528.119V154.68ZM510.816 155.865C511.172 157.755 512.014 159.285 513.393 160.357L514.62 158.779C513.695 158.059 513.065 156.997 512.781 155.495L510.816 155.865ZM513.407 160.368C514.784 161.401 516.57 161.864 518.663 161.864V159.864C516.851 159.864 515.533 159.463 514.607 158.768L513.407 160.368ZM518.663 161.864C519.928 161.864 521.234 161.71 522.578 161.408L522.139 159.456C520.923 159.73 519.765 159.864 518.663 159.864V161.864ZM522.601 161.402C523.944 161.066 525.144 160.624 526.189 160.066L525.248 158.302C524.373 158.768 523.333 159.158 522.116 159.462L522.601 161.402ZM524.739 159.383L525.843 164.807L527.802 164.409L526.698 158.985L524.739 159.383ZM526.358 163.723C525.163 164.35 523.823 164.833 522.331 165.168L522.77 167.12C524.414 166.751 525.922 166.21 527.287 165.493L526.358 163.723ZM522.308 165.174C520.852 165.538 519.366 165.72 517.847 165.72V167.72C519.527 167.72 521.177 167.518 522.793 167.114L522.308 165.174ZM522.684 150.522C522.574 148.939 522.008 147.596 520.926 146.594L519.567 148.062C520.213 148.66 520.607 149.493 520.689 150.662L522.684 150.522ZM520.94 146.608C519.854 145.561 518.434 145.08 516.791 145.08V147.08C518.027 147.08 518.911 147.431 519.553 148.048L520.94 146.608ZM516.791 145.08C515.207 145.08 513.822 145.547 512.716 146.534L514.049 148.026C514.735 147.413 515.622 147.08 516.791 147.08V145.08ZM512.703 146.546C511.642 147.529 511.014 148.854 510.763 150.435L512.738 150.749C512.935 149.514 513.395 148.631 514.062 148.014L512.703 146.546ZM511.751 151.592H521.687V149.592H511.751V151.592ZM534.616 163.552L533.809 164.142L533.814 164.149L533.819 164.156L534.616 163.552ZM535.768 144.256L535.051 143.558L535.051 143.559L535.768 144.256ZM548.296 140.704L548.237 141.702L549.296 141.765V140.704H548.296ZM548.296 130.96V129.96H547.296V130.96H548.296ZM554.968 130.96H555.968V129.96H554.968V130.96ZM554.968 166V167H555.968V166H554.968ZM548.392 166L547.393 165.955L547.346 167H548.392V166ZM548.536 162.784L549.535 162.829L549.582 161.784H548.536V162.784ZM548.344 162.784V161.784H547.801L547.505 162.239L548.344 162.784ZM545.272 165.712L544.788 164.837L544.778 164.842L545.272 165.712ZM545.704 159.52L546.373 160.263L546.379 160.257L546.386 160.251L545.704 159.52ZM548.296 155.728L549.201 156.154L549.296 155.952V155.728H548.296ZM548.296 146.944H549.296V146.174L548.552 145.977L548.296 146.944ZM540.568 148.48L539.789 147.853L539.784 147.859L539.779 147.865L540.568 148.48ZM539.992 159.088L539.112 159.564L539.12 159.578L539.128 159.592L539.992 159.088ZM541.192 165.72C538.702 165.72 536.813 164.796 535.413 162.948L533.819 164.156C535.619 166.532 538.113 167.72 541.192 167.72V165.72ZM535.423 162.962C534.024 161.049 533.264 158.309 533.264 154.624H531.264C531.264 158.555 532.071 161.767 533.809 164.142L535.423 162.962ZM533.264 154.624C533.264 150.28 534.386 147.109 536.484 144.953L535.051 143.559C532.478 146.203 531.264 149.944 531.264 154.624H533.264ZM536.484 144.954C538.615 142.766 541.686 141.608 545.848 141.608V139.608C541.306 139.608 537.657 140.882 535.051 143.558L536.484 144.954ZM545.848 141.608C546.361 141.608 547.153 141.639 548.237 141.702L548.354 139.706C547.262 139.641 546.422 139.608 545.848 139.608V141.608ZM549.296 140.704V130.96H547.296V140.704H549.296ZM548.296 131.96H554.968V129.96H548.296V131.96ZM553.968 130.96V166H555.968V130.96H553.968ZM554.968 165H548.392V167H554.968V165ZM549.391 166.045L549.535 162.829L547.537 162.739L547.393 165.955L549.391 166.045ZM548.536 161.784H548.344V163.784H548.536V161.784ZM547.505 162.239C546.754 163.395 545.847 164.252 544.788 164.837L545.755 166.587C547.129 165.828 548.27 164.733 549.182 163.329L547.505 162.239ZM544.778 164.842C543.763 165.418 542.577 165.72 541.192 165.72V167.72C542.878 167.72 544.412 167.35 545.765 166.582L544.778 164.842ZM542.728 161.816C544.058 161.816 545.279 161.248 546.373 160.263L545.035 158.777C544.209 159.52 543.445 159.816 542.728 159.816V161.816ZM546.386 160.251C547.467 159.243 548.397 157.861 549.201 156.154L547.391 155.302C546.658 156.859 545.861 158.005 545.021 158.789L546.386 160.251ZM549.296 155.728V146.944H547.296V155.728H549.296ZM548.552 145.977C547.391 145.67 546.265 145.512 545.176 145.512V147.512C546.071 147.512 547.024 147.642 548.04 147.911L548.552 145.977ZM545.176 145.512C542.923 145.512 541.073 146.258 539.789 147.853L541.347 149.107C542.175 148.078 543.396 147.512 545.176 147.512V145.512ZM539.779 147.865C538.563 149.423 538.032 151.599 538.032 154.24H540.032C540.032 151.825 540.524 150.161 541.356 149.095L539.779 147.865ZM538.032 154.24C538.032 156.375 538.362 158.177 539.112 159.564L540.871 158.612C540.341 157.631 540.032 156.201 540.032 154.24H538.032ZM539.128 159.592C539.945 160.993 541.158 161.816 542.728 161.816V159.816C541.994 159.816 541.382 159.487 540.856 158.584L539.128 159.592ZM564.047 130.96V129.96H563.047V130.96H564.047ZM571.775 130.96H572.775V129.96H571.775V130.96ZM571.775 137.2V138.2H572.775V137.2H571.775ZM564.047 137.2H563.047V138.2H564.047V137.2ZM560.303 160.192V159.192H559.303V160.192H560.303ZM564.911 160.192V161.192H565.911V160.192H564.911ZM564.911 147.088H565.911V146.088H564.911V147.088ZM560.303 147.088H559.303V148.088H560.303V147.088ZM560.303 141.28V140.28H559.303V141.28H560.303ZM571.679 141.28H572.679V140.28H571.679V141.28ZM571.679 160.192H570.679V161.192H571.679V160.192ZM575.807 160.192H576.807V159.192H575.807V160.192ZM575.807 166V167H576.807V166H575.807ZM560.303 166H559.303V167H560.303V166ZM564.047 131.96H571.775V129.96H564.047V131.96ZM570.775 130.96V137.2H572.775V130.96H570.775ZM571.775 136.2H564.047V138.2H571.775V136.2ZM565.047 137.2V130.96H563.047V137.2H565.047ZM560.303 161.192H564.911V159.192H560.303V161.192ZM565.911 160.192V147.088H563.911V160.192H565.911ZM564.911 146.088H560.303V148.088H564.911V146.088ZM561.303 147.088V141.28H559.303V147.088H561.303ZM560.303 142.28H571.679V140.28H560.303V142.28ZM570.679 141.28V160.192H572.679V141.28H570.679ZM571.679 161.192H575.807V159.192H571.679V161.192ZM574.807 160.192V166H576.807V160.192H574.807ZM575.807 165H560.303V167H575.807V165ZM561.303 166V160.192H559.303V166H561.303ZM580.879 163.456L581.702 162.887L581.702 162.887L580.879 163.456ZM582.079 144.208L582.796 144.905L582.801 144.901L582.079 144.208ZM600.559 141.76H601.559V140.968L600.788 140.787L600.559 141.76ZM600.559 166V167H601.559V166H600.559ZM594.127 166L593.128 165.963L593.09 167H594.127V166ZM594.271 162.064L595.27 162.101L595.308 161.064H594.271V162.064ZM594.079 162.064V161.064H593.49L593.204 161.58L594.079 162.064ZM591.007 165.52L590.457 164.685L590.447 164.691L591.007 165.52ZM591.343 159.232L592.083 159.905L592.083 159.905L591.343 159.232ZM594.031 155.008L594.935 155.435L595.031 155.232V155.008H594.031ZM594.031 146.944H595.031V146.186L594.302 145.981L594.031 146.944ZM586.591 148.48L585.793 147.877L585.789 147.883L585.784 147.889L586.591 148.48ZM586.015 159.088L585.116 159.525L585.121 159.535L586.015 159.088ZM586.975 165.72C584.756 165.72 583.026 164.804 581.702 162.887L580.056 164.025C581.74 166.46 584.074 167.72 586.975 167.72V165.72ZM581.702 162.887C580.352 160.935 579.623 158.198 579.623 154.576H577.623C577.623 158.442 578.398 161.625 580.056 164.025L581.702 162.887ZM579.623 154.576C579.623 150.193 580.733 147.026 582.796 144.905L581.362 143.511C578.818 146.126 577.623 149.871 577.623 154.576H579.623ZM582.801 144.901C584.864 142.751 587.882 141.608 592.015 141.608V139.608C587.508 139.608 583.902 140.865 581.358 143.515L582.801 144.901ZM592.015 141.608C594.347 141.608 597.115 141.977 600.33 142.733L600.788 140.787C597.475 140.007 594.547 139.608 592.015 139.608V141.608ZM599.559 141.76V166H601.559V141.76H599.559ZM600.559 165H594.127V167H600.559V165ZM595.126 166.037L595.27 162.101L593.272 162.027L593.128 165.963L595.126 166.037ZM594.271 161.064H594.079V163.064H594.271V161.064ZM593.204 161.58C592.436 162.968 591.516 163.988 590.458 164.685L591.557 166.355C592.931 165.452 594.058 164.168 594.954 162.548L593.204 161.58ZM590.447 164.691C589.438 165.374 588.291 165.72 586.975 165.72V167.72C588.668 167.72 590.209 167.266 591.567 166.349L590.447 164.691ZM588.415 161.816C589.794 161.816 591.018 161.076 592.083 159.905L590.603 158.559C589.748 159.5 589.02 159.816 588.415 159.816V161.816ZM592.083 159.905C593.129 158.754 594.075 157.255 594.935 155.435L593.127 154.581C592.323 156.281 591.477 157.598 590.603 158.559L592.083 159.905ZM595.031 155.008V146.944H593.031V155.008H595.031ZM594.302 145.981C593.193 145.67 592.078 145.512 590.959 145.512V147.512C591.888 147.512 592.821 147.642 593.76 147.907L594.302 145.981ZM590.959 145.512C588.785 145.512 587.008 146.271 585.793 147.877L587.389 149.083C588.159 148.065 589.293 147.512 590.959 147.512V145.512ZM585.784 147.889C584.645 149.446 584.151 151.629 584.151 154.288H586.151C586.151 151.827 586.617 150.138 587.398 149.071L585.784 147.889ZM584.151 154.288C584.151 156.383 584.448 158.152 585.116 159.525L586.914 158.651C586.431 157.656 586.151 156.225 586.151 154.288H584.151ZM585.121 159.535C585.814 160.922 586.908 161.816 588.415 161.816V159.816C587.874 159.816 587.368 159.558 586.91 158.641L585.121 159.535Z" fill="black"/>
</g>
<g filter="url(#filter3_d_3_10)">
<path d="M381.448 87.16L384.472 121H393.76L389.224 73.048H376.264L364.024 107.464L352.144 73.048H339.184L334.792 121H344.152L347.464 87.304L360.136 121.504L368.704 122.296L381.448 87.16Z" fill="black"/>
<path d="M381.448 87.16L380.508 86.819L382.444 87.071L381.448 87.16ZM384.472 121V122H383.557L383.476 121.089L384.472 121ZM393.76 121L394.756 120.906L394.859 122H393.76V121ZM389.224 73.048V72.048H390.134L390.22 72.9538L389.224 73.048ZM376.264 73.048L375.322 72.7129L375.558 72.048H376.264V73.048ZM364.024 107.464L364.966 107.799L364.01 110.488L363.079 107.79L364.024 107.464ZM352.144 73.048V72.048H352.857L353.089 72.7217L352.144 73.048ZM339.184 73.048L338.188 72.9568L338.271 72.048H339.184V73.048ZM334.792 121V122H333.696L333.796 120.909L334.792 121ZM344.152 121L345.147 121.098L345.059 122H344.152V121ZM347.464 87.304L346.469 87.2062L348.402 86.9566L347.464 87.304ZM360.136 121.504L360.044 122.5L359.417 122.442L359.198 121.851L360.136 121.504ZM368.704 122.296L369.644 122.637L369.381 123.363L368.612 123.292L368.704 122.296ZM382.444 87.071L385.468 120.911L383.476 121.089L380.452 87.249L382.444 87.071ZM384.472 120H393.76V122H384.472V120ZM392.764 121.094L388.228 73.1422L390.22 72.9538L394.756 120.906L392.764 121.094ZM389.224 74.048H376.264V72.048H389.224V74.048ZM377.206 73.3831L364.966 107.799L363.082 107.129L375.322 72.7129L377.206 73.3831ZM363.079 107.79L351.199 73.3743L353.089 72.7217L364.969 107.138L363.079 107.79ZM352.144 74.048H339.184V72.048H352.144V74.048ZM340.18 73.1392L335.788 121.091L333.796 120.909L338.188 72.9568L340.18 73.1392ZM334.792 120H344.152V122H334.792V120ZM343.157 120.902L346.469 87.2062L348.459 87.4018L345.147 121.098L343.157 120.902ZM348.402 86.9566L361.074 121.157L359.198 121.851L346.526 87.6514L348.402 86.9566ZM360.228 120.508L368.796 121.3L368.612 123.292L360.044 122.5L360.228 120.508ZM367.764 121.955L380.508 86.819L382.388 87.501L369.644 122.637L367.764 121.955Z" fill="black"/>
</g>
<defs>
<filter id="filter0_d_3_10" x="284.928" y="25.382" width="67.787" height="57.932" filterUnits="userSpaceOnUse" color-interpolation-filters="sRGB">
<feFlood flood-opacity="0" result="BackgroundImageFix"/>
<feColorMatrix in="SourceAlpha" type="matrix" values="0 0 0 0 0 0 0 0 0 0 0 0 0 0 0 0 0 0 127 0" result="hardAlpha"/>
<feOffset dy="4"/>
<feGaussianBlur stdDeviation="2"/>
<feComposite in2="hardAlpha" operator="out"/>
<feColorMatrix type="matrix" values="0 0 0 0 0 0 0 0 0 0 0 0 0 0 0 0 0 0 0.25 0"/>
<feBlend mode="normal" in2="BackgroundImageFix" result="effect1_dropShadow_3_10"/>
<feBlend mode="normal" in="SourceGraphic" in2="effect1_dropShadow_3_10" result="shape"/>
</filter>
<filter id="filter1_d_3_10" x="239.792" y="73.048" width="66.968" height="57.248" filterUnits="userSpaceOnUse" color-interpolation-filters="sRGB">
<feFlood flood-opacity="0" result="BackgroundImageFix"/>
<feColorMatrix in="SourceAlpha" type="matrix" values="0 0 0 0 0 0 0 0 0 0 0 0 0 0 0 0 0 0 127 0" result="hardAlpha"/>
<feOffset dy="4"/>
<feGaussianBlur stdDeviation="2"/>
<feComposite in2="hardAlpha" operator="out"/>
<feColorMatrix type="matrix" values="0 0 0 0 0 0 0 0 0 0 0 0 0 0 0 0 0 0 0.25 0"/>
<feBlend mode="normal" in2="BackgroundImageFix" result="effect1_dropShadow_3_10"/>
<feBlend mode="normal" in="SourceGraphic" in2="effect1_dropShadow_3_10" result="shape"/>
</filter>
<filter id="filter2_d_3_10" x="31.16" y="130.912" width="573.399" height="53.984" filterUnits="userSpaceOnUse" color-interpolation-filters="sRGB">
<feFlood flood-opacity="0" result="BackgroundImageFix"/>
<feColorMatrix in="SourceAlpha" type="matrix" values="0 0 0 0 0 0 0 0 0 0 0 0 0 0 0 0 0 0 127 0" result="hardAlpha"/>
<feOffset dy="4"/>
<feGaussianBlur stdDeviation="2"/>
<feComposite in2="hardAlpha" operator="out"/>
<feColorMatrix type="matrix" values="0 0 0 0 0 0 0 0 0 0 0 0 0 0 0 0 0 0 0.25 0"/>
<feBlend mode="normal" in2="BackgroundImageFix" result="effect1_dropShadow_3_10"/>
<feBlend mode="normal" in="SourceGraphic" in2="effect1_dropShadow_3_10" result="shape"/>
</filter>
<filter id="filter3_d_3_10" x="330.792" y="73.048" width="66.968" height="57.248" filterUnits="userSpaceOnUse" color-interpolation-filters="sRGB">
<feFlood flood-opacity="0" result="BackgroundImageFix"/>
<feColorMatrix in="SourceAlpha" type="matrix" values="0 0 0 0 0 0 0 0 0 0 0 0 0 0 0 0 0 0 127 0" result="hardAlpha"/>
<feOffset dy="4"/>
<feGaussianBlur stdDeviation="2"/>
<feComposite in2="hardAlpha" operator="out"/>
<feColorMatrix type="matrix" values="0 0 0 0 0 0 0 0 0 0 0 0 0 0 0 0 0 0 0.25 0"/>
<feBlend mode="normal" in2="BackgroundImageFix" result="effect1_dropShadow_3_10"/>
<feBlend mode="normal" in="SourceGraphic" in2="effect1_dropShadow_3_10" result="shape"/>
</filter>
</defs>
</svg>
